<?xml version="1.0" encoding="UTF-8"?>
<svg id="Layer_2" data-name="Layer 2" xmlns="http://www.w3.org/2000/svg" viewBox="0 0 1381 1257">
  <defs>
    <style>
      .cls-1 {
        font-family: BaskOldFace, 'Baskerville Old Face';
        font-size: 72px;
      }

      .cls-2 {
        fill: #1a1a1a;
        stroke: #000;
        stroke-miterlimit: 10;
      }

      .cls-3 {
        fill: #999;
      }
    </style>
  </defs>
  <g>
    <rect class="cls-3" x="25.5" y="21.5" width="1340" height="1222" rx="11.5" ry="11.5"/>
    <path d="M1354,22c6.07,0,11,4.93,11,11v1199c0,6.07-4.93,11-11,11H37c-6.07,0-11-4.93-11-11V33c0-6.07,4.93-11,11-11h1317M1354,21H37c-6.6,0-12,5.4-12,12v1199c0,6.6,5.4,12,12,12h1317c6.6,0,12-5.4,12-12V33c0-6.6-5.4-12-12-12h0Z"/>
  </g>
  <path class="cls-2" d="M1069.12,1244v-182.34h39.68l32.7-554.16s-68.77,11.33-72.38-33.34v-88.18l59.38-.48v36l62-1v-40.03h73.71v44.09l57.29-.06v-44.03h44.5v851.53s-.5,11.5-12,12h-284.88Z"/>
  <rect class="cls-2" x="911.5" y="983.5" width="13" height="184"/>
  <rect class="cls-2" x="861.79" y="929.59" width="13.02" height="131.34" transform="translate(-451.99 1031.78) rotate(-50.48)"/>
  <rect class="cls-2" x="886.33" y="1149.21" width="12.56" height="90.19" transform="translate(716.74 -286.3) rotate(30)"/>
  <rect class="cls-2" x="946.68" y="1015.24" width="13.23" height="119.62" transform="translate(2364.26 1346.5) rotate(142.46)"/>
  <rect class="cls-2" x="939.24" y="1149.14" width="12.56" height="90.19" transform="translate(2361.48 1755.72) rotate(150)"/>
  <ellipse class="cls-2" cx="192.5" cy="239" rx="92" ry="53.5"/>
  <ellipse class="cls-2" cx="429" cy="513.5" rx="85.5" ry="54"/>
  <ellipse class="cls-2" cx="169" cy="911.5" rx="104.5" ry="63"/>
  <ellipse class="cls-2" cx="174.5" cy="674" rx="110" ry="56.5"/>
  <ellipse class="cls-2" cx="474" cy="1079.5" rx="103.5" ry="76"/>
  <ellipse class="cls-2" cx="609.5" cy="276" rx="75" ry="42.5"/>
  <ellipse class="cls-2" cx="172" cy="1175" rx="92.5" ry="56.5"/>
  <ellipse class="cls-2" cx="105.5" cy="413" rx="50" ry="32.5"/>
  <polygon class="cls-2" points="811.19 995.26 813.5 958.5 837.5 936.5 811.19 936.5 805.5 768.5 793.5 747.5 780.5 772.5 792.5 937.5 768.5 938.5 792.5 959.5 811.19 995.26"/>
  <text class="cls-1" transform="translate(463.16 106.63)"><tspan x="0" y="0">DEFEND THE </tspan><tspan x="95.19" y="86.4">TOWER</tspan></text>
  <circle class="cls-2" cx="918" cy="927" r="70.5"/>
</svg>