<?xml version="1.0" encoding="UTF-8"?>
<svg id="Layer_2" data-name="Layer 2" xmlns="http://www.w3.org/2000/svg" viewBox="0 0 1381 1257">
  <defs>
    <style>
      .cls-1 {
        font-family: BaskOldFace, 'Baskerville Old Face';
        font-size: 72px;
      }

      .cls-2 {
        fill: #1a1a1a;
      }

      .cls-3 {
        fill: #999;
      }
    </style>
  </defs>
  <g>
    <rect class="cls-3" x="13.5" y="8.5" width="1354" height="1235" rx="11.5" ry="11.5"/>
    <path d="M1356,9c6.07,0,11,4.93,11,11v1212c0,6.07-4.93,11-11,11H25c-6.07,0-11-4.93-11-11V20c0-6.07,4.93-11,11-11h1331M1356,8H25c-6.6,0-12,5.4-12,12v1212c0,6.6,5.4,12,12,12h1331c6.6,0,12-5.4,12-12V20c0-6.6-5.4-12-12-12h0Z"/>
  </g>
  <g>
    <rect class="cls-2" x="176.5" y="1072.5" width="266" height="59"/>
    <path d="M442,1073v58H177v-58h265M443,1072H176v60h267v-60h0Z"/>
  </g>
  <g>
    <rect class="cls-2" x="558.5" y="885.5" width="193" height="58"/>
    <path d="M751,886v57h-192v-57h192M752,885h-194v59h194v-59h0Z"/>
  </g>
  <g>
    <rect class="cls-2" x="1024.5" y="1102.5" width="262" height="106"/>
    <path d="M1286,1103v105h-261v-105h261M1287,1102h-263v107h263v-107h0Z"/>
  </g>
  <g>
    <rect class="cls-2" x="1093.5" y="731.5" width="135" height="46"/>
    <path d="M1228,732v45h-134v-45h134M1229,731h-136v47h136v-47h0Z"/>
  </g>
  <g>
    <rect class="cls-2" x="942.5" y="568.5" width="96" height="35"/>
    <path d="M1038,569v34h-95v-34h95M1039,568h-97v36h97v-36h0Z"/>
  </g>
  <g>
    <rect class="cls-2" x="752.5" y="514.5" width="117" height="32"/>
    <path d="M869,515v31h-116v-31h116M870,514h-118v33h118v-33h0Z"/>
  </g>
  <g>
    <rect class="cls-2" x="402.5" y="446.5" width="61" height="13"/>
    <path d="M463,447v12h-60v-12h60M464,446h-62v14h62v-14h0Z"/>
  </g>
  <g>
    <rect class="cls-2" x="592.5" y="460.5" width="80" height="13"/>
    <path d="M672,461v12h-79v-12h79M673,460h-81v14h81v-14h0Z"/>
  </g>
  <g>
    <rect class="cls-2" x="225.5" y="341.5" width="54" height="10"/>
    <path d="M279,342v9h-53v-9h53M280,341h-55v11h55v-11h0Z"/>
  </g>
  <g>
    <rect class="cls-2" x="98.5" y="255.5" width="33" height="6"/>
    <path d="M131,256v5h-32v-5h32M132,255h-34v7h34v-7h0Z"/>
  </g>
  <g>
    <rect class="cls-2" x="821.5" y="975.5" width="217" height="79"/>
    <path d="M1038,976v78h-216v-78h216M1039,975h-218v80h218v-80h0Z"/>
  </g>
  <g>
    <path class="cls-2" d="M500.5,791.5c-31.43,0-57-22.65-57-50.5s25.57-50.5,57-50.5,57,22.65,57,50.5-25.57,50.5-57,50.5Z"/>
    <path d="M500.5,691c31.15,0,56.5,22.43,56.5,50s-25.35,50-56.5,50-56.5-22.43-56.5-50,25.35-50,56.5-50M500.5,690c-31.76,0-57.5,22.83-57.5,51s25.74,51,57.5,51,57.5-22.83,57.5-51-25.74-51-57.5-51h0Z"/>
  </g>
  <g>
    <rect class="cls-2" x="413" y="833" width="120" height="31" transform="translate(-459.72 1119.99) rotate(-77.09)"/>
    <path d="M471.67,787.15l29.24,6.7-26.58,115.99-29.24-6.7,26.58-115.99M470.92,785.95l-27.03,117.94,31.19,7.15,27.03-117.94-31.19-7.15h0Z"/>
  </g>
  <g>
    <rect class="cls-2" x="492" y="798" width="110" height="11" transform="translate(-81.16 61.72) rotate(-6.01)"/>
    <path d="M600.68,792.82l1.05,9.94-108.4,11.42-1.05-9.94,108.4-11.42M601.57,791.72l-110.39,11.63,1.26,11.93,110.39-11.63-1.26-11.93h0Z"/>
  </g>
  <g>
    <rect class="cls-2" x="452.88" y="866" width="110" height="11" transform="translate(-467.49 614.39) rotate(-45)"/>
    <path d="M542.89,829.42l7.07,7.07-77.07,77.07-7.07-7.07,77.07-77.07M542.89,828.01l-78.49,78.49,8.49,8.49,78.49-78.49-8.49-8.49h0Z"/>
  </g>
  <g>
    <rect class="cls-2" x="568.76" y="813.49" width="9.95" height="70.56" transform="translate(-426.42 1070.75) rotate(-68.46)"/>
    <path d="M543.03,831.83l64.7,25.55-3.29,8.33-64.7-25.55,3.29-8.33M542.47,830.53l-4.02,10.19,66.56,26.28,4.02-10.19-66.56-26.28h0Z"/>
  </g>
  <g>
    <rect class="cls-2" x="356.88" y="927" width="110" height="11" transform="translate(-538.74 564.37) rotate(-45)"/>
    <path d="M446.89,890.42l7.07,7.07-77.07,77.07-7.07-7.07,77.07-77.07M446.89,889.01l-78.49,78.49,8.49,8.49,78.49-78.49-8.49-8.49h0Z"/>
  </g>
  <g>
    <rect class="cls-2" x="356.88" y="812" width="110" height="11" transform="translate(-83.37 47.64) rotate(-6.01)"/>
    <path d="M465.56,806.82l1.05,9.94-108.4,11.42-1.05-9.94,108.4-11.42M466.45,805.72l-110.39,11.63,1.26,11.93,110.39-11.63-1.26-11.93h0Z"/>
  </g>
  <text class="cls-1" transform="translate(388.36 92.83)"><tspan x="0" y="0">PARKOUR TO THE </tspan><tspan x="247.8" y="86.4">TOP</tspan></text>
</svg>