<?xml version="1.0" encoding="UTF-8"?>
<svg id="Layer_1" data-name="Layer 1" xmlns="http://www.w3.org/2000/svg" viewBox="0 0 600 600">
  <defs>
    <style>
      .cls-1 {
        stroke: #000;
        stroke-miterlimit: 10;
      }

      .cls-2 {
        fill: #445e4b;
      }

      .cls-3 {
        fill: #42427c;
      }
    </style>
  </defs>
  <g>
    <polygon class="cls-2" points="221.47 340.57 65.05 266.07 235.39 234.4 257.9 62.61 340.66 214.82 510.99 183.15 391.81 308.89 474.57 461.1 318.15 386.6 198.96 512.35 221.47 340.57"/>
    <path d="M258.19,64.2l81.85,150.54.35.64.71-.13,168.46-31.33-117.88,124.36-.5.53.35.64,81.85,150.54-154.7-73.68-.66-.31-.5.53-117.88,124.36,22.26-169.9.09-.72-.66-.31-154.7-73.68,168.46-31.33.71-.13.09-.72,22.26-169.9M257.6,61.02l-22.66,172.95-171.49,31.89,157.48,75-22.66,172.95,119.99-126.6,157.48,75-83.32-153.24,119.99-126.6-171.49,31.89-83.32-153.24h0Z"/>
  </g>
  <g>
    <polygon class="cls-2" points="239.51 352.73 67.51 331.97 218.86 247.67 185.46 77.67 312.41 195.56 463.77 111.25 390.87 268.43 517.82 386.32 345.82 365.56 272.92 522.73 239.51 352.73"/>
    <path d="M186.24,79.08l125.56,116.6.53.49.63-.35,149.7-83.38-72.1,155.45-.31.66.53.49,125.56,116.6-170.12-20.53-.72-.09-.31.66-72.1,155.45-33.04-168.13-.14-.71-.72-.09-170.12-20.53,149.69-83.38.63-.35-.14-.71-33.04-168.13M184.67,76.25l33.64,171.15-152.38,84.88,173.17,20.9,33.64,171.15,73.39-158.24,173.17,20.9-127.81-118.7,73.39-158.24-152.38,84.88-127.81-118.7h0Z"/>
  </g>
  <g>
    <polygon class="cls-2" points="291.19 390.28 138.35 472.03 211 310.55 81.31 181.58 255.89 210.78 328.52 49.36 363.79 228.83 538.44 258.03 385.6 339.78 420.86 519.21 291.19 390.28"/>
    <path d="M328.33,50.99l34.9,177.59.13.68.68.11,172.86,28.91-151.22,80.88-.65.35.14.73,34.88,177.46-128.25-127.52-.52-.52-.65.35-151.22,80.88,71.91-159.83.28-.63-.49-.49-128.34-127.61,172.66,28.87.76.13.32-.7,71.83-159.64M328.71,47.72l-73.12,162.5-175.75-29.39,130.56,129.82-73.12,162.5,153.81-82.27,130.56,129.82-35.51-180.67,153.81-82.27-175.75-29.39-35.51-180.67h0Z"/>
  </g>
  <g>
    <polygon class="cls-2" points="132.09 115.74 194.34 163.8 163.25 188.36 132.09 115.74"/>
    <path d="M133.31,117.32l60.22,46.49-30.08,23.75-30.14-70.24M130.87,114.17l32.18,74.98,32.11-25.35-64.29-49.63h0Z"/>
  </g>
  <g>
    <polygon class="cls-2" points="129.19 356.78 154.82 386.99 83.35 420.69 129.19 356.78"/>
    <path d="M129.22,357.59l24.79,29.22-69.14,32.6,44.35-61.82M129.16,355.97l-47.34,65.99,73.8-34.79-26.47-31.2h0Z"/>
  </g>
  <g>
    <polygon class="cls-2" points="350.69 140.08 396.46 75.67 387.84 153.84 350.69 140.08"/>
    <path d="M395.75,77.53l-8.33,75.62-35.94-13.31,44.27-62.31M397.16,73.81l-47.26,66.52,38.36,14.21,8.89-80.73h0Z"/>
  </g>
  <g>
    <polygon class="cls-2" points="490.58 300.73 562.45 333.57 484.05 339.8 490.58 300.73"/>
    <path d="M490.97,301.45l69.52,31.77-75.84,6.03,6.32-37.8M490.2,300l-6.75,40.35,80.96-6.43-74.21-33.92h0Z"/>
  </g>
  <path class="cls-2" d="M502.26,288.75c0,90.59-89.88,164.02-200.76,164.02s-200.76-73.43-200.76-164.02c0-50.08,27.47-94.92,70.78-125,35.03-24.33,80.41-39.02,129.99-39.02,110.88,0,200.76,73.43,200.76,164.02Z"/>
  <g>
    <path class="cls-3" d="M236.58,325.75c-22.57,0-40.93-29.34-40.93-65.41s18.36-65.41,40.93-65.41,40.93,29.34,40.93,65.41-18.36,65.41-40.93,65.41Z"/>
    <path d="M236.58,195.43c22.29,0,40.43,29.12,40.43,64.91s-18.14,64.91-40.43,64.91-40.43-29.12-40.43-64.91,18.13-64.91,40.43-64.91M236.58,194.43c-22.88,0-41.43,29.51-41.43,65.91s18.55,65.91,41.43,65.91,41.43-29.51,41.43-65.91-18.55-65.91-41.43-65.91h0Z"/>
  </g>
  <g>
    <path class="cls-3" d="M368.24,325.75c-22.57,0-40.93-29.34-40.93-65.41s18.36-65.41,40.93-65.41,40.93,29.34,40.93,65.41-18.36,65.41-40.93,65.41Z"/>
    <path d="M368.24,195.43c22.29,0,40.43,29.12,40.43,64.91s-18.13,64.91-40.43,64.91-40.43-29.12-40.43-64.91,18.13-64.91,40.43-64.91M368.24,194.43c-22.88,0-41.43,29.51-41.43,65.91s18.55,65.91,41.43,65.91,41.43-29.51,41.43-65.91-18.55-65.91-41.43-65.91h0Z"/>
  </g>
  <polygon class="cls-1" points="215.13 163.37 295.43 212.62 248.28 197.1 215.13 163.37"/>
  <polygon class="cls-1" points="390.06 163.37 309.75 212.62 356.91 197.1 390.06 163.37"/>
  <path class="cls-1" d="M405.87,233.21s-3.19-11.42-10.71-21.6c-11.32-15.32-32.24-28.44-53.11-.97-4.34,5.72-7,12.96-11.44,22.56h75.26"/>
  <circle class="cls-1" cx="239.54" cy="277.18" r="19.87"/>
  <circle class="cls-1" cx="368.24" cy="277.18" r="19.87"/>
  <path class="cls-1" d="M274.21,233.21s-3.19-11.42-10.71-21.6c-11.32-15.32-32.24-28.44-53.11-.97-4.34,5.72-7,12.96-11.44,22.56h75.26"/>
</svg>